<svg width="166" height="24" viewBox="0 0 166 24" fill="none" xmlns="http://www.w3.org/2000/svg">
<path d="M0 22.8789V0.773267H9.60018V3.55694H4.26675V9.9976H8.61998V12.8086H4.26675V22.8789H0Z" fill="black"/>
<path d="M10.0513 22.8789L14.7217 0.773267H19.2767L23.9471 22.8789H19.9975L19.0749 17.7755H15.01L14.0586 22.8789H10.0513ZM15.4424 15.2102H18.6136L17.028 5.93125L15.4424 15.2102Z" fill="black"/>
<path d="M32.0641 23.1791C30.6611 23.1791 29.4887 22.9244 28.5469 22.415C27.6052 21.8873 26.8941 21.1232 26.4136 20.1225C25.9331 19.1219 25.664 17.8938 25.6063 16.4383L29.2677 15.756C29.3061 16.6111 29.4118 17.3661 29.5848 18.0211C29.777 18.6761 30.0557 19.1855 30.4208 19.5494C30.8052 19.8951 31.3049 20.0679 31.92 20.0679C32.6119 20.0679 33.102 19.8769 33.3903 19.4948C33.6786 19.0946 33.8227 18.5942 33.8227 17.9938C33.8227 17.0296 33.5921 16.2381 33.1308 15.6195C32.6695 15.0009 32.0545 14.3823 31.2857 13.7637L28.3451 11.3076C27.5187 10.6344 26.8556 9.88843 26.3559 9.06971C25.8754 8.23278 25.6352 7.20483 25.6352 5.98583C25.6352 4.23921 26.1733 2.89286 27.2496 1.94678C28.3259 1.00069 29.7962 0.527649 31.6605 0.527649C32.756 0.527649 33.669 0.691394 34.3993 1.01889C35.1296 1.32818 35.7062 1.76484 36.1291 2.32885C36.5711 2.89286 36.8979 3.53875 37.1093 4.2665C37.3207 4.97607 37.4552 5.73112 37.5129 6.53165L33.8804 7.13205C33.8419 6.44068 33.7554 5.82209 33.6209 5.27627C33.5056 4.73045 33.2846 4.30289 32.9578 3.9936C32.6503 3.6843 32.189 3.52965 31.574 3.52965C30.9398 3.52965 30.4497 3.72978 30.1037 4.13005C29.777 4.51212 29.6136 4.99426 29.6136 5.57647C29.6136 6.32242 29.777 6.94101 30.1037 7.43225C30.4305 7.90529 30.9013 8.39653 31.5164 8.90596L34.4281 11.3349C35.3891 12.099 36.2059 12.9996 36.8786 14.0367C37.5705 15.0555 37.9165 16.2927 37.9165 17.7482C37.9165 18.8035 37.6666 19.7405 37.1669 20.5592C36.6864 21.3779 36.0041 22.0238 35.12 22.4968C34.2552 22.9517 33.2365 23.1791 32.0641 23.1791Z" fill="black"/>
<path d="M40.4864 22.8789V0.773267H44.7243V10.0249H49.4811V0.773267H53.7479V22.8789H49.4811V12.8904H44.7243V22.8789H40.4864Z" fill="black"/>
<path d="M57.4362 22.8789V0.773267H61.6453V22.8789H57.4362Z" fill="black"/>
<path d="M71.6027 23.1791C69.9498 23.1791 68.6333 22.888 67.6531 22.3058C66.6729 21.7236 65.9714 20.8867 65.5485 19.795C65.1257 18.7034 64.9143 17.4116 64.9143 15.9197V7.65058C64.9143 6.15867 65.1257 4.8851 65.5485 3.82985C65.9714 2.75641 66.6729 1.93768 67.6531 1.37367C68.6333 0.809655 69.9498 0.527649 71.6027 0.527649C73.294 0.527649 74.6202 0.809655 75.5812 1.37367C76.5614 1.93768 77.2629 2.75641 77.6857 3.82985C78.1278 4.8851 78.3488 6.15867 78.3488 7.65058V15.947C78.3488 17.4207 78.1278 18.7034 77.6857 19.795C77.2629 20.8685 76.5614 21.7054 75.5812 22.3058C74.6202 22.888 73.294 23.1791 71.6027 23.1791ZM71.6027 20.2044C72.3138 20.2044 72.8328 20.0588 73.1595 19.7677C73.5054 19.4766 73.7361 19.0764 73.8514 18.5669C73.9667 18.0575 74.0244 17.5026 74.0244 16.9022V6.72269C74.0244 6.10409 73.9667 5.54918 73.8514 5.05794C73.7361 4.5667 73.5054 4.18463 73.1595 3.91172C72.8328 3.62062 72.3138 3.47507 71.6027 3.47507C70.93 3.47507 70.4207 3.62062 70.0748 3.91172C69.7288 4.18463 69.4982 4.5667 69.3828 5.05794C69.2675 5.54918 69.2099 6.10409 69.2099 6.72269V16.9022C69.2099 17.5026 69.2579 18.0575 69.354 18.5669C69.4693 19.0764 69.7 19.4766 70.0459 19.7677C70.3919 20.0588 70.9108 20.2044 71.6027 20.2044Z" fill="black"/>
<path d="M81.5049 22.8789V0.773267H84.4743L90.1537 13.3817V0.773267H93.6709V22.8789H90.8456L85.1374 9.6701V22.8789H81.5049Z" fill="black"/>
<path d="M103.096 23.1791C101.693 23.1791 100.52 22.9244 99.5787 22.415C98.6369 21.8873 97.9258 21.1232 97.4453 20.1225C96.9648 19.1219 96.6957 17.8938 96.6381 16.4383L100.299 15.756C100.338 16.6111 100.444 17.3661 100.617 18.0211C100.809 18.6761 101.087 19.1855 101.453 19.5494C101.837 19.8951 102.337 20.0679 102.952 20.0679C103.644 20.0679 104.134 19.8769 104.422 19.4948C104.71 19.0946 104.854 18.5942 104.854 17.9938C104.854 17.0296 104.624 16.2381 104.163 15.6195C103.701 15.0009 103.086 14.3823 102.317 13.7637L99.3769 11.3076C98.5504 10.6344 97.8874 9.88843 97.3877 9.06971C96.9072 8.23278 96.6669 7.20483 96.6669 5.98583C96.6669 4.23921 97.2051 2.89286 98.2814 1.94678C99.3577 1.00069 100.828 0.527649 102.692 0.527649C103.788 0.527649 104.701 0.691394 105.431 1.01889C106.161 1.32818 106.738 1.76484 107.161 2.32885C107.603 2.89286 107.93 3.53875 108.141 4.2665C108.352 4.97607 108.487 5.73112 108.545 6.53165L104.912 7.13205C104.874 6.44068 104.787 5.82209 104.653 5.27627C104.537 4.73045 104.316 4.30289 103.99 3.9936C103.682 3.6843 103.221 3.52965 102.606 3.52965C101.972 3.52965 101.481 3.72978 101.135 4.13005C100.809 4.51212 100.645 4.99426 100.645 5.57647C100.645 6.32242 100.809 6.94101 101.135 7.43225C101.462 7.90529 101.933 8.39653 102.548 8.90596L105.46 11.3349C106.421 12.099 107.238 12.9996 107.91 14.0367C108.602 15.0555 108.948 16.2927 108.948 17.7482C108.948 18.8035 108.698 19.7405 108.199 20.5592C107.718 21.3779 107.036 22.0238 106.152 22.4968C105.287 22.9517 104.268 23.1791 103.096 23.1791Z" fill="black"/>
<path d="M113.796 22.8789V3.74798H110.077V0.773267H121.724V3.74798H118.062V22.8789H113.796Z" fill="black"/>
<path d="M130.078 23.1791C128.425 23.1791 127.108 22.888 126.128 22.3058C125.148 21.7236 124.447 20.8867 124.024 19.795C123.601 18.7034 123.389 17.4116 123.389 15.9197V7.65058C123.389 6.15867 123.601 4.8851 124.024 3.82985C124.447 2.75641 125.148 1.93768 126.128 1.37367C127.108 0.809655 128.425 0.527649 130.078 0.527649C131.769 0.527649 133.095 0.809655 134.056 1.37367C135.037 1.93768 135.738 2.75641 136.161 3.82985C136.603 4.8851 136.824 6.15867 136.824 7.65058V15.947C136.824 17.4207 136.603 18.7034 136.161 19.795C135.738 20.8685 135.037 21.7054 134.056 22.3058C133.095 22.888 131.769 23.1791 130.078 23.1791ZM130.078 20.2044C130.789 20.2044 131.308 20.0588 131.635 19.7677C131.981 19.4766 132.211 19.0764 132.327 18.5669C132.442 18.0575 132.5 17.5026 132.5 16.9022V6.72269C132.5 6.10409 132.442 5.54918 132.327 5.05794C132.211 4.5667 131.981 4.18463 131.635 3.91172C131.308 3.62062 130.789 3.47507 130.078 3.47507C129.405 3.47507 128.896 3.62062 128.55 3.91172C128.204 4.18463 127.973 4.5667 127.858 5.05794C127.743 5.54918 127.685 6.10409 127.685 6.72269V16.9022C127.685 17.5026 127.733 18.0575 127.829 18.5669C127.945 19.0764 128.175 19.4766 128.521 19.7677C128.867 20.0588 129.386 20.2044 130.078 20.2044Z" fill="black"/>
<path d="M139.98 22.8789V0.773267H145.573C147.149 0.773267 148.475 0.955207 149.551 1.31909C150.647 1.66477 151.473 2.26517 152.031 3.12029C152.607 3.9754 152.896 5.13981 152.896 6.61352C152.896 7.50503 152.809 8.30556 152.636 9.01512C152.463 9.72469 152.165 10.3342 151.743 10.8436C151.339 11.3349 150.772 11.7169 150.042 11.9898L153.299 22.8789H149.033L146.207 12.754H144.247V22.8789H139.98ZM144.247 10.2159H145.573C146.399 10.2159 147.053 10.1068 147.533 9.88843C148.033 9.65191 148.389 9.28803 148.6 8.7968C148.812 8.28737 148.917 7.64148 148.917 6.85914C148.917 5.74931 148.696 4.92149 148.254 4.37567C147.831 3.81166 147.014 3.52965 145.804 3.52965H144.247V10.2159Z" fill="black"/>
<path d="M156.14 22.8789V0.773267H165.942V3.61152H160.407V9.97031H164.76V12.7813H160.407V20.0952H166V22.8789H156.14Z" fill="black"/>
</svg>
